<?xml version="1.0" encoding="utf-8"?>
<!-- Generator: Adobe Illustrator 19.0.0, SVG Export Plug-In . SVG Version: 6.00 Build 0)  -->
<svg version="1.1"
	 id="svg13145" xmlns:inkscape="http://www.inkscape.org/namespaces/inkscape" xmlns:svg="http://www.w3.org/2000/svg" xmlns:sodipodi="http://sodipodi.sourceforge.net/DTD/sodipodi-0.dtd" xmlns:rdf="http://www.w3.org/1999/02/22-rdf-syntax-ns#" xmlns:cc="http://creativecommons.org/ns#" xmlns:dc="http://purl.org/dc/elements/1.1/" sodipodi:docname="New document 2" inkscape:version="0.47 r22583"
	 xmlns="http://www.w3.org/2000/svg" xmlns:xlink="http://www.w3.org/1999/xlink" x="0px" y="0px" viewBox="-627 474.6 702.7 595"
	 style="enable-background:new -627 474.6 702.7 595;" xml:space="preserve">
<style type="text/css">
	.st0{fill:#FFCC00;}
	.st1{fill:#5FBCD3;}
	.st2{fill:#2C89A0;}
	.st3{fill:#006680;}
	.st4{fill:#008080;}
	.st5{fill:#00CCFF;}
	.st6{fill:#241F1C;}
</style>
<defs>
	
	
		<inkscape:perspective  inkscape:persp3d-origin="372.04724 : 350.78739 : 1" sodipodi:type="inkscape:persp3d" inkscape:vp_z="744.09448 : 526.18109 : 1" id="perspective13153" inkscape:vp_y="0 : 1000 : 0" inkscape:vp_x="0 : 526.18109 : 1">
		</inkscape:perspective>
	
		<inkscape:perspective  inkscape:persp3d-origin="0.5 : 0.33333333 : 1" sodipodi:type="inkscape:persp3d" inkscape:vp_z="1 : 0.5 : 1" id="perspective13115" inkscape:vp_y="0 : 1000 : 0" inkscape:vp_x="0 : 0.5 : 1">
		</inkscape:perspective>
	
		<inkscape:perspective  inkscape:persp3d-origin="0.5 : 0.33333333 : 1" sodipodi:type="inkscape:persp3d" inkscape:vp_z="1 : 0.5 : 1" id="perspective13222" inkscape:vp_y="0 : 1000 : 0" inkscape:vp_x="0 : 0.5 : 1">
		</inkscape:perspective>
	
		<inkscape:perspective  inkscape:persp3d-origin="0.5 : 0.33333333 : 1" sodipodi:type="inkscape:persp3d" inkscape:vp_z="1 : 0.5 : 1" id="perspective13373" inkscape:vp_y="0 : 1000 : 0" inkscape:vp_x="0 : 0.5 : 1">
		</inkscape:perspective>
</defs>
<sodipodi:namedview  inkscape:window-maximized="0" inkscape:window-y="69" inkscape:window-x="69" inkscape:window-height="450" inkscape:window-width="550" inkscape:current-layer="layer1" inkscape:document-units="px" inkscape:pageshadow="2" inkscape:pageopacity="0.0" id="base" showgrid="false" pagecolor="#ffffff" inkscape:cx="375" bordercolor="#666666" borderopacity="1.0" inkscape:cy="520" inkscape:zoom="0.35">
	</sodipodi:namedview>
<g id="g29995" transform="matrix(3.2402353,0,0,3.2402353,-836.05383,340.52293)" inkscape:export-filename="C:\Users\star\Desktop\siteLUCIANA.png" inkscape:export-xdpi="72" inkscape:export-ydpi="72">
	
		<g id="g20316" transform="matrix(1.25,0,0,-1.25,354.89406,76.859273)" inkscape:export-filename="C:\Users\star\Desktop\siteLUCIANA.png" inkscape:export-xdpi="72" inkscape:export-ydpi="72">
		<path id="path20318" class="st0" d="M-76.2-27.4c0,0,12.8-2.3,17.4-6.3l-16.8-0.8l-2.9,5L-76.2-27.4z"/>
	</g>
	<g id="g29954">
		
			<g id="g20168" transform="matrix(1.25,0,0,-1.25,191.71657,664.58264)" inkscape:export-filename="C:\Users\star\Desktop\siteLUCIANA.png" inkscape:export-xdpi="72" inkscape:export-ydpi="72">
			<g id="g20170">
				<g id="g20176">
					<g id="g20178">
						<path id="path20186" class="st1" d="M-90.1,368.4c0,0,3.8-7.3,14.4-1.5l0,0c10.5,5.9,29.5,22,29.5,22l0,0l-2.2,2.8
							C-48.4,391.7-83,370.9-90.1,368.4"/>
					</g>
				</g>
			</g>
		</g>
		
			<g id="g20188" transform="matrix(1.25,0,0,-1.25,191.71657,664.58264)" inkscape:export-filename="C:\Users\star\Desktop\siteLUCIANA.png" inkscape:export-xdpi="72" inkscape:export-ydpi="72">
			<g id="g20190">
				<g id="g20196">
					<g id="g20198">
						<path id="path20206" class="st2" d="M-84.5,362.7c0,0,6-6.8,15.7,0.3l0,0c9.8,7,25.5,25.2,25.5,25.2l0,0l-2.5,2.5
							C-45.8,390.7-77.7,366-84.5,362.7"/>
					</g>
				</g>
			</g>
		</g>
		
			<g id="g20208" transform="matrix(1.25,0,0,-1.25,191.71657,664.58264)" inkscape:export-filename="C:\Users\star\Desktop\siteLUCIANA.png" inkscape:export-xdpi="72" inkscape:export-ydpi="72">
			<g id="g20210">
				<g id="g20216">
					<g id="g20218">
						<path id="path20226" class="st3" d="M-78.4,356.5c0,0,5.8-5.7,14.8,2.4l0,0c9,8.1,23.4,27.5,23.4,27.5l0,0l-2.8,2.2
							C-43,388.6-72,360.5-78.4,356.5"/>
					</g>
				</g>
			</g>
		</g>
		
			<g id="g20228" transform="matrix(1.25,0,0,-1.25,191.71657,664.58264)" inkscape:export-filename="C:\Users\star\Desktop\siteLUCIANA.png" inkscape:export-xdpi="72" inkscape:export-ydpi="72">
			<g id="g20230">
				<g id="g20236">
					<g id="g20238">
						<path id="path20246" class="st4" d="M-69.5,353.2c0,0,7.2-5.3,15.1,3.9l0,0c7.9,9.1,19,30.6,19,30.6l0,0l-3.1,1.8
							C-38.4,389.5-63.6,357.9-69.5,353.2"/>
					</g>
				</g>
			</g>
		</g>
		
			<g id="g20248" transform="matrix(1.25,0,0,-1.25,191.71657,664.58264)" inkscape:export-filename="C:\Users\star\Desktop\siteLUCIANA.png" inkscape:export-xdpi="72" inkscape:export-ydpi="72">
			<g id="g20250">
				<g id="g20256">
					<g id="g20258">
						<path id="path20266" class="st4" d="M-39.5,482.7c1.2-1-5.2,2.4-6.9,3.8l0,0c0,0-4.8-9,5.5-15.2l0,0c1.3-0.8-4.2,1.5-5.9,2.6
							l0,0c0,0-2.8-7.3,4-12.3l0,0c-0.2-0.7-2.6-8.1,4.8-12.8l0,0c-0.4-2.7-0.4-8.1,5.8-11.7l0,0c0.4-3.1,2.1-6.9,8-9.4l0,0
							c0.6-0.3,1.2-0.5,1.9-0.7l0,0c13.1-13.9,26-16.5,34-10.6l0,0c9.2,6.9,15.9,20.6-4.4,39.3l0,0c-17.3,16-37.4,31.8-40.3,34.1
							l0,0c-4.5,3.9-8.1,7.2-9.5,8.9l0,0C-42.3,498.6-48.6,490.5-39.5,482.7"/>
					</g>
				</g>
			</g>
		</g>
		
			<g id="g20268" transform="matrix(1.25,0,0,-1.25,191.71657,664.58264)" inkscape:export-filename="C:\Users\star\Desktop\siteLUCIANA.png" inkscape:export-xdpi="72" inkscape:export-ydpi="72">
			<g id="g20270">
				<g id="g20276">
					<g id="g20278">
						<path id="path20286" class="st5" d="M1.3,433.1C-18.8,413.6-51.9,390-51.9,390l0,0c0,0,36.7-20.9,63.6-13.4l0,0
							c26.9,7.5,33.5,38.6,44.1,60l0,0c-1.1,10.5-6,19.3-16.2,19.3l0,0C31,455.9,18.5,449.7,1.3,433.1"/>
					</g>
				</g>
			</g>
		</g>
		
			<g id="g20288" transform="matrix(1.25,0,0,-1.25,191.71657,664.58264)" inkscape:export-filename="C:\Users\star\Desktop\siteLUCIANA.png" inkscape:export-xdpi="72" inkscape:export-ydpi="72">
			<g id="g20290">
				<g id="g20296">
					<g id="g20298">
						<path id="path20306" class="st4" d="M-85.5,446.6c-7.4-0.1-13.6-0.1-16.3,0.4l0,0c0,0,0.8-12.8,15.9-12.5l0,0
							c2,0-6.9-2.1-9.6-2.2l0,0c0,0,3-12.5,17.9-9.5l0,0c1.8,0.4-5.2-2.1-7.7-2.5l0,0c0,0,3.6-9.2,14.1-8.2l0,0
							c0.4-0.9,4.4-9.7,15.3-8l0,0c1.8-2.9,6.4-7.9,15.2-6l0,0c2.9-2.6,7.8-4.7,15.4-2.1l0,0c0.8,0.3,1.6,0.6,2.4,0.9l0,0
							c23.9-2,38.2,6.4,40.7,18.6l0,0c2.8,14.2-2.4,32.5-37.1,33l0,0c-2.7,0-5.4,0.1-8.1,0.1l0,0C-54.4,448.5-81.3,446.8-85.5,446.6
							"/>
					</g>
				</g>
			</g>
		</g>
		
			<g id="g20320" transform="matrix(1.25,0,0,-1.25,346.38581,76.378273)" inkscape:export-filename="C:\Users\star\Desktop\siteLUCIANA.png" inkscape:export-xdpi="72" inkscape:export-ydpi="72">
			<path id="path20322" class="st0" d="M-84.1-26.9c0.4-1.5,2-2.4,3.5-2c1.5,0.4,2.4,2,1.9,3.5c-0.4,1.5-2,2.4-3.5,2
				C-83.7-23.9-84.5-25.4-84.1-26.9"/>
		</g>
		
			<g id="g20324" transform="matrix(1.25,0,0,-1.25,347.49656,76.111523)" inkscape:export-filename="C:\Users\star\Desktop\siteLUCIANA.png" inkscape:export-xdpi="72" inkscape:export-ydpi="72">
			<path id="path20326" class="st6" d="M-83.1-26.7c0.2-0.7,0.9-1.1,1.6-0.9c0.7,0.2,1.1,0.9,0.9,1.6c-0.2,0.7-0.9,1.1-1.6,0.9
				C-82.9-25.2-83.3-26-83.1-26.7"/>
		</g>
	</g>
</g>
</svg>
